<svg xmlns="http://www.w3.org/2000/svg" version="1.1" xmlns:xlink="http://www.w3.org/1999/xlink" xmlns:svgjs="http://svgjs.dev/svgjs" width="1000" height="265" viewBox="0 0 1000 265"><g transform="matrix(1,0,0,1,-0.6060606060606233,0.4349352579070569)"><svg viewBox="0 0 396 105" data-background-color="#22262a" preserveAspectRatio="xMidYMid meet" height="265" width="1000" xmlns="http://www.w3.org/2000/svg" xmlns:xlink="http://www.w3.org/1999/xlink"><g id="tight-bounds" transform="matrix(1,0,0,1,0.2400000000000091,-0.17233283803864197)"><svg viewBox="0 0 395.52 105.34466567607726" height="105.34466567607726" width="395.52"><g><svg viewBox="0 0 395.52 105.34466567607726" height="105.34466567607726" width="395.52"><g><svg viewBox="0 0 395.52 105.34466567607726" height="105.34466567607726" width="395.52"><g id="textblocktransform"><svg viewBox="0 0 395.52 105.34466567607726" height="105.34466567607726" width="395.52" id="textblock"><g><svg viewBox="0 0 395.52 105.34466567607726" height="105.34466567607726" width="395.52"><g transform="matrix(1,0,0,1,0,0)"><svg width="395.52" viewBox="3.25 -35.01 131.43 35.01" height="105.34466567607726" data-palette-color="#f9fafb"><path d="M10.25-13.99L10.25 0 3.25 0 3.25-35.01 27.76-35.01 27.76-28 10.25-28 10.25-21 20.75-21 20.75-13.99 10.25-13.99ZM55.86-7.01L55.86 0 31.35 0 31.35-35.01 38.35-35.01 38.35-7.01 55.86-7.01ZM66.08-13.99L80.1-13.99 80.1-21Q80.1-22.44 79.55-23.72 79-25 78.05-25.95 77.09-26.9 75.81-27.45 74.53-28 73.09-28L73.09-28Q71.65-28 70.37-27.45 69.09-26.9 68.13-25.95 67.18-25 66.63-23.72 66.08-22.44 66.08-21L66.08-21 66.08-13.99ZM87.1-21L87.1 0 80.1 0 80.1-7.01 66.08-7.01 66.08 0 59.1 0 59.1-21Q59.1-23.9 60.2-26.45 61.3-29 63.19-30.91 65.08-32.81 67.63-33.91 70.19-35.01 73.09-35.01L73.09-35.01Q76-35.01 78.55-33.91 81.1-32.81 83-30.91 84.91-29 86.01-26.45 87.1-23.9 87.1-21L87.1-21ZM100.19-35.01L100.19 0 93.18 0 93.18-35.01 100.19-35.01ZM120.69-28L113.69-28 113.69-13.99 120.69-13.99Q122.13-13.99 123.4-14.54 124.67-15.09 125.62-16.04 126.58-16.99 127.13-18.27 127.68-19.56 127.68-21L127.68-21Q127.68-22.44 127.13-23.72 126.58-25 125.62-25.95 124.67-26.9 123.4-27.45 122.13-28 120.69-28L120.69-28ZM113.69-7.01L113.69 0 106.68 0 106.68-35.01 120.69-35.01Q122.62-35.01 124.4-34.51 126.19-34.01 127.74-33.09 129.29-32.18 130.57-30.9 131.85-29.61 132.77-28.05 133.68-26.49 134.18-24.71 134.68-22.92 134.68-21L134.68-21Q134.68-19.19 134.23-17.48 133.78-15.77 132.94-14.23 132.09-12.7 130.87-11.4 129.65-10.11 128.14-9.16L128.14-9.16 132.02 0 124.57 0 121.52-7.06 113.69-7.01Z" opacity="1" transform="matrix(1,0,0,1,0,0)" fill="#f9fafb" class="wordmark-text-0" data-fill-palette-color="primary" id="text-0"></path></svg></g></svg></g></svg></g></svg></g></svg></g><defs></defs></svg><rect width="395.52" height="105.34466567607726" fill="none" stroke="none" visibility="hidden"></rect></g></svg></g></svg>