<svg xmlns="http://www.w3.org/2000/svg" version="1.1" xmlns:xlink="http://www.w3.org/1999/xlink" xmlns:svgjs="http://svgjs.dev/svgjs" width="128" height="128" viewBox="0 0 128 128"><g transform="matrix(0.5628415300546448,0,0,0.5628415300546448,28.035359501532305,12.333870967741937)"><svg viewBox="0 0 108 155" data-background-color="#22262a" preserveAspectRatio="xMidYMid meet" height="183" width="128" xmlns="http://www.w3.org/2000/svg" xmlns:xlink="http://www.w3.org/1999/xlink"><g id="tight-bounds" transform="matrix(1,0,0,1,-0.08577405857739961,0.25)"><svg viewBox="0 0 108.17154811715481 154.5" height="154.5" width="108.17154811715481"><g><svg viewBox="0 0 108.17154811715481 154.5" height="154.5" width="108.17154811715481"><g><svg viewBox="0 0 108.17154811715481 154.5" height="154.5" width="108.17154811715481"><g id="textblocktransform"><svg viewBox="0 0 108.17154811715481 154.5" height="154.5" width="108.17154811715481" id="textblock"><g><svg viewBox="0 0 108.17154811715481 154.5" height="154.5" width="108.17154811715481"><g transform="matrix(1,0,0,1,0,0)"><svg width="108.17154811715481" viewBox="3.25 -35.01 24.51 35.01" height="154.5" data-palette-color="#f9fafb"><path d="M10.25-13.99L10.25 0 3.25 0 3.25-35.01 27.76-35.01 27.76-28 10.25-28 10.25-21 20.75-21 20.75-13.99 10.25-13.99Z" opacity="1" transform="matrix(1,0,0,1,0,0)" fill="#ffffff" class="wordmark-text-0" data-fill-palette-color="primary" id="text-0"></path></svg></g></svg></g></svg></g></svg></g></svg></g><defs></defs></svg><rect width="108.17154811715481" height="154.5" fill="none" stroke="none" visibility="hidden"></rect></g></svg></g></svg>